<svg t="1742146008561" class="icon" viewBox="0 0 1024 1024" version="1.1" xmlns="http://www.w3.org/2000/svg" p-id="2693"
     width="200" height="200">
	<path d="M955.733333 0H68.266667A68.266667 68.266667 0 0 0 0 68.266667v674.133333A68.266667 68.266667 0 0 0 68.266667 810.666667h887.466666a68.266667 68.266667 0 0 0 68.266667-68.266667V68.266667A68.266667 68.266667 0 0 0 955.733333 0z"
	      fill="#111314" fill-opacity=".72" p-id="2694"></path>
	<path d="M597.333333 853.333333m34.133334 0l273.066666 0q34.133333 0 34.133334 34.133334l0 17.066666q0 34.133333-34.133334 34.133334l-273.066666 0q-34.133333 0-34.133334-34.133334l0-17.066666q0-34.133333 34.133334-34.133334Z"
	      fill="#CACBCC" p-id="2695"></path>
	<path d="M768 981.333333m17.066667 0l221.866666 0q17.066667 0 17.066667 17.066667l0 8.533333q0 17.066667-17.066667 17.066667l-221.866666 0q-17.066667 0-17.066667-17.066667l0-8.533333q0-17.066667 17.066667-17.066667Z"
	      fill="#EDEEF0" p-id="2696"></path>
	<path d="M904.533333 85.333333H119.466667a34.133333 34.133333 0 0 0-34.133334 34.133334v571.733333a34.133333 34.133333 0 0 0 34.133334 34.133333h785.066666a34.133333 34.133333 0 0 0 34.133334-34.133333V119.466667a34.133333 34.133333 0 0 0-34.133334-34.133334z"
	      fill="#FFFFFF" p-id="2697"></path>
	<path d="M810.666667 597.333333a42.666667 42.666667 0 1 1 0-85.333333 42.666667 42.666667 0 0 1 0 85.333333z m-170.666667 0a42.666667 42.666667 0 1 1 0-85.333333 42.666667 42.666667 0 0 1 0 85.333333z m-170.666667 0a42.666667 42.666667 0 1 1 0-85.333333 42.666667 42.666667 0 0 1 0 85.333333z"
	      fill="#FFC13C" p-id="2698"></path>
	<path d="M469.333333 170.666667c-12.202667 8.106667-24.362667 17.834667-36.565333 29.184-12.202667 11.306667-22.613333 24.234667-31.36 38.741333-4.650667 8.106667-8.533333 16.384-11.733333 24.789333a114.944 114.944 0 0 0-6.528 27.434667h70.528v128.853333H335.232V349.226667c0-39.509333 5.248-73.429333 15.658667-101.888 11.648-33.706667 29.909333-59.221333 54.869333-76.629334H469.333333zM304.768 170.666667c-12.202667 8.106667-24.405333 17.834667-36.565333 29.184-12.202667 11.306667-22.613333 24.234667-31.36 38.741333-4.650667 8.106667-8.533333 16.384-11.733334 24.789333a114.944 114.944 0 0 0-6.570666 27.434667h70.570666v128.853333H170.666667V349.226667c0-39.509333 5.205333-73.429333 15.658666-101.888 11.605333-33.706667 29.909333-59.221333 54.869334-76.629334h63.573333z"
	      fill="#5BADFF" p-id="2699"></path>
</svg>